<?xml version="1.0" encoding="utf-8"?>
<!-- Generator: Adobe Illustrator 23.0.3, SVG Export Plug-In . SVG Version: 6.00 Build 0)  -->
<svg version="1.1" id="Capa_1" xmlns="http://www.w3.org/2000/svg" xmlns:xlink="http://www.w3.org/1999/xlink" x="0px" y="0px"
	 viewBox="0 0 500 188.79" style="enable-background:new 0 0 500 188.79;" xml:space="preserve">
<style type="text/css">
	.st0{fill:#FFFFFF;}
</style>
<path class="st0" d="M0,113.46h50.35c5.89,0,11.53-2.33,15.7-6.48L135.37,38h59.74L82.21,150.9h54.19c5.9,0,11.57-2.35,15.74-6.52
	L258.66,37.86h58.82L166.55,188.79h172.72c5.89,0,11.53-2.33,15.7-6.48l52.16-51.92h-58.68L327.9,150.9h-59.39l75.48-75.46h58.64
	l-17.29,18.16h49.71c5.91,0,11.58-2.35,15.76-6.54L499.76,38H379.22l0,0c14.02-14.02,4.09-38-15.74-38L122.97,0
	c-5.89,0-11.55,2.34-15.72,6.5L0,113.46z"/>
</svg>
