<?xml version="1.0" encoding="utf-8"?>
<!-- Generator: Adobe Illustrator 23.0.3, SVG Export Plug-In . SVG Version: 6.00 Build 0)  -->
<svg version="1.1" id="Capa_1" xmlns="http://www.w3.org/2000/svg" xmlns:xlink="http://www.w3.org/1999/xlink" x="0px" y="0px"
	 viewBox="0 0 800 313.38" style="enable-background:new 0 0 800 313.38;" xml:space="preserve">
<style type="text/css">
	.st0{fill:#FFFFFF;}
</style>
<g>
	<g>
		<path class="st0" d="M11.56,55.04c-2.91-1.31-5.18-3.12-6.84-5.44c-1.65-2.32-2.51-5-2.56-8.03h7.76c0.27,2.61,1.35,4.81,3.24,6.6
			c1.89,1.79,4.65,2.68,8.28,2.68c3.46,0,6.2-0.87,8.19-2.6c2-1.73,3-3.96,3-6.68c0-2.13-0.59-3.86-1.76-5.2
			c-1.17-1.33-2.64-2.34-4.4-3.04c-1.76-0.69-4.13-1.44-7.12-2.24c-3.68-0.96-6.62-1.92-8.83-2.88c-2.21-0.96-4.1-2.46-5.68-4.52
			c-1.57-2.05-2.36-4.81-2.36-8.27c0-3.04,0.77-5.73,2.32-8.07c1.55-2.34,3.72-4.16,6.52-5.44C14.12,0.64,17.33,0,20.96,0
			c5.22,0,9.5,1.31,12.83,3.92c3.33,2.61,5.21,6.08,5.64,10.39h-7.99c-0.27-2.13-1.39-4.01-3.36-5.64
			c-1.97-1.62-4.58-2.44-7.83-2.44c-3.04,0-5.52,0.79-7.44,2.36c-1.92,1.57-2.88,3.77-2.88,6.6c0,2.03,0.57,3.68,1.72,4.96
			c1.15,1.28,2.56,2.25,4.24,2.92c1.68,0.67,4.04,1.43,7.08,2.28c3.68,1.01,6.64,2.01,8.87,3c2.24,0.99,4.16,2.51,5.76,4.56
			c1.6,2.05,2.4,4.84,2.4,8.35c0,2.72-0.72,5.28-2.16,7.68c-1.44,2.4-3.57,4.34-6.4,5.84C28.6,56.26,25.27,57,21.44,57
			C17.76,57,14.47,56.35,11.56,55.04z"/>
		<path class="st0" d="M58.65,54.36c-3.33-1.87-5.94-4.52-7.83-7.95c-1.89-3.44-2.84-7.42-2.84-11.95c0-4.48,0.97-8.43,2.92-11.87
			c1.95-3.44,4.6-6.08,7.95-7.91c3.36-1.84,7.12-2.76,11.27-2.76c4.16,0,7.91,0.92,11.27,2.76c3.36,1.84,6.01,4.46,7.95,7.87
			c1.94,3.41,2.92,7.38,2.92,11.91c0,4.53-1,8.51-3,11.95c-2,3.44-4.7,6.09-8.11,7.95c-3.41,1.87-7.2,2.8-11.35,2.8
			C65.7,57.16,61.98,56.23,58.65,54.36z M77.16,48.93c2.29-1.23,4.14-3.06,5.56-5.52c1.41-2.45,2.12-5.44,2.12-8.95
			s-0.69-6.5-2.08-8.95c-1.39-2.45-3.2-4.28-5.44-5.48c-2.24-1.2-4.66-1.8-7.28-1.8c-2.67,0-5.1,0.6-7.32,1.8
			c-2.21,1.2-3.99,3.03-5.32,5.48c-1.33,2.45-2,5.44-2,8.95c0,3.57,0.65,6.58,1.96,9.03c1.31,2.45,3.05,4.28,5.24,5.48
			c2.18,1.2,4.58,1.8,7.2,1.8C72.41,50.77,74.87,50.16,77.16,48.93z"/>
		<path class="st0" d="M163.66,13.95c2.66,1.41,4.77,3.53,6.32,6.36c1.55,2.83,2.32,6.26,2.32,10.31v25.82h-7.2V31.66
			c0-4.37-1.08-7.72-3.24-10.03c-2.16-2.32-5.08-3.48-8.75-3.48c-3.79,0-6.8,1.21-9.03,3.64c-2.24,2.43-3.36,5.93-3.36,10.51v24.14
			h-7.2V31.66c0-4.37-1.08-7.72-3.24-10.03c-2.16-2.32-5.08-3.48-8.75-3.48c-3.79,0-6.8,1.21-9.03,3.64
			c-2.24,2.43-3.36,5.93-3.36,10.51v24.14h-7.28V12.63h7.28v6.32c1.44-2.29,3.37-4.05,5.8-5.28c2.42-1.23,5.1-1.84,8.03-1.84
			c3.68,0,6.93,0.83,9.75,2.48c2.82,1.65,4.93,4.08,6.32,7.28c1.23-3.09,3.25-5.49,6.08-7.2c2.82-1.71,5.97-2.56,9.43-2.56
			C157.96,11.83,161,12.54,163.66,13.95z"/>
		<path class="st0" d="M192.16,54.36c-3.33-1.87-5.94-4.52-7.83-7.95c-1.89-3.44-2.84-7.42-2.84-11.95c0-4.48,0.97-8.43,2.92-11.87
			c1.95-3.44,4.6-6.08,7.95-7.91c3.36-1.84,7.12-2.76,11.27-2.76c4.16,0,7.91,0.92,11.27,2.76c3.36,1.84,6.01,4.46,7.95,7.87
			c1.94,3.41,2.92,7.38,2.92,11.91c0,4.53-1,8.51-3,11.95c-2,3.44-4.7,6.09-8.11,7.95c-3.41,1.87-7.2,2.8-11.35,2.8
			C199.21,57.16,195.49,56.23,192.16,54.36z M210.67,48.93c2.29-1.23,4.14-3.06,5.56-5.52c1.41-2.45,2.12-5.44,2.12-8.95
			s-0.69-6.5-2.08-8.95c-1.39-2.45-3.2-4.28-5.44-5.48c-2.24-1.2-4.66-1.8-7.28-1.8c-2.67,0-5.1,0.6-7.32,1.8
			c-2.21,1.2-3.99,3.03-5.32,5.48c-1.33,2.45-2,5.44-2,8.95c0,3.57,0.65,6.58,1.96,9.03c1.31,2.45,3.05,4.28,5.24,5.48
			c2.18,1.2,4.58,1.8,7.2,1.8C205.93,50.77,208.38,50.16,210.67,48.93z"/>
		<path class="st0" d="M241.85,55.44c-2.67-1.15-4.77-2.74-6.32-4.8c-1.55-2.05-2.4-4.41-2.56-7.08h7.52
			c0.21,2.19,1.24,3.97,3.08,5.36c1.84,1.39,4.25,2.08,7.24,2.08c2.77,0,4.96-0.61,6.56-1.84c1.6-1.23,2.4-2.77,2.4-4.64
			c0-1.92-0.85-3.34-2.56-4.28c-1.71-0.93-4.34-1.85-7.91-2.76c-3.25-0.85-5.9-1.72-7.95-2.6c-2.05-0.88-3.81-2.18-5.28-3.92
			c-1.47-1.73-2.2-4.01-2.2-6.84c0-2.24,0.67-4.29,2-6.16c1.33-1.86,3.22-3.34,5.68-4.44c2.45-1.09,5.25-1.64,8.39-1.64
			c4.85,0,8.77,1.23,11.75,3.68c2.98,2.45,4.58,5.81,4.8,10.07h-7.28c-0.16-2.29-1.08-4.13-2.76-5.52
			c-1.68-1.39-3.93-2.08-6.76-2.08c-2.61,0-4.69,0.56-6.24,1.68c-1.55,1.12-2.32,2.59-2.32,4.4c0,1.44,0.47,2.63,1.4,3.56
			c0.93,0.93,2.1,1.68,3.52,2.24c1.41,0.56,3.37,1.19,5.88,1.88c3.14,0.85,5.7,1.69,7.68,2.52c1.97,0.83,3.66,2.07,5.08,3.72
			c1.41,1.65,2.15,3.81,2.2,6.48c0,2.4-0.67,4.56-2,6.48c-1.33,1.92-3.21,3.43-5.64,4.52c-2.43,1.09-5.21,1.64-8.35,1.64
			C247.53,57.16,244.52,56.59,241.85,55.44z"/>
	</g>
	<path class="st0" d="M0,197.8l29.25-95.58h28.4l6.4,37.02c0.39,2.26,0.75,4.65,1.08,7.15c0.33,2.5,0.64,5.1,0.95,7.8
		c0.48-1.92,1.12-3.97,1.93-6.17s1.95-4.95,3.43-8.26l17.11-37.54h28.21l2.29,95.58H95.45l-0.26-45.57c0-2.57,0.04-5.1,0.13-7.61
		c0.09-2.5,0.22-5.02,0.39-7.54c-0.96,3.22-2.59,7.25-4.9,12.08c-0.44,0.96-0.76,1.68-0.98,2.15L68.03,197.8H52.56l-8.94-46.42
		c-0.48-2.35-0.9-4.71-1.27-7.08c-0.37-2.37-0.71-4.76-1.01-7.15c-0.48,2.83-0.99,5.51-1.53,8.03c-0.54,2.52-1.1,4.88-1.66,7.05
		L24.88,197.8H0z"/>
	<path class="st0" d="M140.02,102.21h25.66l-7.64,47.99c-0.61,3.66-1.02,6.52-1.24,8.59s-0.33,3.88-0.33,5.45
		c0,4.09,1.15,7.28,3.46,9.57s5.53,3.43,9.66,3.43c9.84,0,16.82-13.1,20.96-39.3l0.13-0.91l5.48-34.8h25.66l-8.55,54.26v0.07
		c-1.87,11.75-4.22,20.07-7.05,24.94c-3.57,6.22-8.61,10.97-15.11,14.23s-14.18,4.9-23.01,4.9c-11.4,0-20.54-2.73-27.42-8.19
		s-10.32-12.72-10.32-21.77c0-2.7,0.26-6.31,0.78-10.84c0.52-4.53,1.31-10.14,2.35-16.84L140.02,102.21z"/>
	<path class="st0" d="M220.53,197.8l14.95-95.58h16.45c12.27,0,21.03,0.34,26.28,1.01c5.24,0.67,9.5,1.84,12.76,3.49
		c7.09,3.57,12.5,8.8,16.22,15.7c3.72,6.9,5.58,15.09,5.58,24.58c0,9.18-1.66,17.21-4.99,24.09c-3.33,6.88-8.39,12.71-15.18,17.5
		c-4.79,3.31-10.47,5.67-17.04,7.08c-6.57,1.41-17.56,2.12-32.97,2.12H239H220.53z M249.52,176.51c1.78,0.13,3.1,0.21,3.95,0.23
		c0.85,0.02,1.64,0.03,2.38,0.03c10.23,0,18-2.57,23.31-7.7c5.31-5.14,7.97-12.67,7.97-22.59c0-8.1-1.94-13.98-5.81-17.66
		c-3.87-3.68-10.14-5.52-18.8-5.52h-4.83L249.52,176.51z"/>
	<path class="st0" d="M308.04,197.8l47.86-95.58h31.99l20.31,95.58h-25.92l-3.85-18.02h-33.43l-9.14,18.02H308.04z M354.59,158.49
		h20.17l-4.37-22.33c-0.44-2.22-0.76-4.2-0.98-5.94c-0.22-1.74-0.35-3.37-0.39-4.9c-0.91,2.61-1.75,4.91-2.51,6.89
		s-1.36,3.45-1.8,4.41L354.59,158.49z"/>
	<path class="st0" d="M421.44,197.8l15.08-95.58h29.18l20.17,47.2c0.17,0.39,0.46,1.07,0.85,2.02c2.22,5.18,3.77,9.71,4.64,13.58
		v-2.42c0-1.74,0.1-3.67,0.29-5.78s0.49-4.67,0.88-7.67l7.38-46.94h25.53l-15.08,95.58h-28.07l-21.42-48.64
		c-1.57-3.53-2.75-6.44-3.56-8.75c-0.81-2.31-1.49-4.61-2.06-6.92v2.68c0,1.74-0.08,3.58-0.23,5.52c-0.15,1.94-0.42,4.52-0.82,7.74
		l-7.25,48.38H421.44z"/>
	<path class="st0" d="M517.72,197.8l54.97-74.63h-36.76l2.94-20.96h78.87l-53.73,72.86h42.24l-3.46,22.72H517.72z"/>
	<path class="st0" d="M614.39,197.8l47.86-95.58h31.99l20.31,95.58h-25.92l-3.85-18.02h-33.43l-9.14,18.02H614.39z M660.94,158.49
		h20.17l-4.37-22.33c-0.44-2.22-0.76-4.2-0.98-5.94s-0.35-3.37-0.39-4.9c-0.91,2.61-1.75,4.91-2.51,6.89s-1.36,3.45-1.8,4.41
		L660.94,158.49z"/>
	<path class="st0" d="M736.34,164.89c4,4.31,7.82,7.44,11.46,9.4c3.63,1.96,7.39,2.94,11.26,2.94c3.22,0,5.79-0.78,7.7-2.35
		c1.92-1.57,2.87-3.63,2.87-6.2c0-3.48-3.87-7.25-11.62-11.3c-0.74-0.39-1.33-0.7-1.76-0.91c-7.53-3.92-12.69-7.68-15.47-11.3
		c-2.79-3.61-4.18-8.01-4.18-13.19c0-9.45,3.19-17.17,9.57-23.18c6.38-6.01,14.59-9.01,24.65-9.01c5.31,0,10.41,0.94,15.31,2.81
		c4.9,1.87,9.52,4.64,13.87,8.29l-10.97,18.87c-3.44-2.96-6.57-5.16-9.4-6.59s-5.44-2.15-7.83-2.15c-2.61,0-4.79,0.75-6.53,2.25
		c-1.74,1.5-2.61,3.34-2.61,5.52c0,2.7,3.26,5.72,9.79,9.08c2.31,1.18,4.09,2.13,5.35,2.87c6.7,3.7,11.36,7.48,13.97,11.33
		c2.61,3.85,3.92,8.67,3.92,14.46c0,10.23-3.55,18.4-10.64,24.52c-7.09,6.12-16.74,9.17-28.92,9.17c-6.4,0-12.38-1.36-17.95-4.08
		c-5.57-2.72-10.6-6.76-15.08-12.11L736.34,164.89z"/>
	<path class="st0" d="M181.44,219.88l-4.31,26.38c-3.66-3.18-7.64-5.58-11.95-7.21c-4.31-1.63-8.79-2.45-13.45-2.45
		c-7.92,0-14.45,2.76-19.59,8.29c-5.14,5.53-7.7,12.58-7.7,21.15c0,7.75,2.15,13.74,6.46,17.99c4.31,4.24,10.4,6.37,18.28,6.37
		c3.4,0,6.89-0.41,10.48-1.24c3.59-0.83,7.37-2.07,11.33-3.72l-3.98,24.74c-3.26,1.04-6.87,1.84-10.81,2.38
		c-3.94,0.54-8.19,0.82-12.76,0.82c-13.62,0-24.54-4.22-32.74-12.67c-8.2-8.44-12.31-19.65-12.31-33.62
		c0-6.75,1.06-13.18,3.17-19.29c2.11-6.12,5.21-11.68,9.3-16.68c4.79-5.83,10.76-10.29,17.92-13.38c7.16-3.09,15.18-4.64,24.06-4.64
		c5.05,0,9.95,0.57,14.69,1.7C172.28,215.92,176.92,217.62,181.44,219.88z"/>
	<path class="st0" d="M205.34,310.96h-25.4l15.08-95.58h25.46c7.66,0,13.36,0.27,17.11,0.82s6.99,1.47,9.73,2.77
		c4.83,2.26,8.49,5.45,10.97,9.57c2.48,4.11,3.72,9.04,3.72,14.79c0,7.92-2.36,14.55-7.08,19.88c-4.72,5.33-11.22,8.67-19.49,10.02
		l23.24,37.74h-29.12l-18.48-36.5L205.34,310.96z M213.5,259.06h8.03c5.05,0,8.92-1.15,11.62-3.46c2.7-2.31,4.05-5.64,4.05-9.99
		c0-4.09-1.26-7.06-3.79-8.91c-2.52-1.85-6.57-2.77-12.14-2.77h-3.79L213.5,259.06z"/>
	<path class="st0" d="M270.65,310.96l15.15-95.58h26.05l-15.15,95.58H270.65z"/>
	<path class="st0" d="M401.04,219.88l-4.31,26.38c-3.66-3.18-7.64-5.58-11.95-7.21c-4.31-1.63-8.79-2.45-13.45-2.45
		c-7.92,0-14.45,2.76-19.59,8.29s-7.7,12.58-7.7,21.15c0,7.75,2.15,13.74,6.46,17.99c4.31,4.24,10.4,6.37,18.28,6.37
		c3.4,0,6.89-0.41,10.48-1.24c3.59-0.83,7.37-2.07,11.33-3.72l-3.98,24.74c-3.26,1.04-6.87,1.84-10.81,2.38
		c-3.94,0.54-8.19,0.82-12.76,0.82c-13.62,0-24.54-4.22-32.74-12.67c-8.2-8.44-12.31-19.65-12.31-33.62
		c0-6.75,1.06-13.18,3.17-19.29c2.11-6.12,5.21-11.68,9.3-16.68c4.79-5.83,10.76-10.29,17.92-13.38c7.16-3.09,15.18-4.64,24.06-4.64
		c5.05,0,9.95,0.57,14.69,1.7C391.88,215.92,396.51,217.62,401.04,219.88z"/>
	<path class="st0" d="M402.6,310.96l47.86-95.58h31.99l20.31,95.58h-25.92l-3.85-18.02h-33.43l-9.14,18.02H402.6z M449.15,271.66
		h20.17l-4.37-22.33c-0.44-2.22-0.76-4.2-0.98-5.94c-0.22-1.74-0.35-3.37-0.39-4.9c-0.91,2.61-1.75,4.91-2.51,6.89
		s-1.36,3.45-1.8,4.41L449.15,271.66z"/>
	<path class="st0" d="M527.23,278.06c4,4.31,7.82,7.44,11.46,9.4c3.63,1.96,7.39,2.94,11.26,2.94c3.22,0,5.79-0.78,7.7-2.35
		c1.92-1.57,2.87-3.63,2.87-6.2c0-3.48-3.87-7.25-11.62-11.3c-0.74-0.39-1.33-0.7-1.76-0.91c-7.53-3.92-12.69-7.68-15.47-11.3
		c-2.79-3.61-4.18-8.01-4.18-13.19c0-9.45,3.19-17.17,9.57-23.18c6.38-6.01,14.59-9.01,24.65-9.01c5.31,0,10.41,0.94,15.31,2.81
		c4.9,1.87,9.52,4.64,13.87,8.29l-10.97,18.87c-3.44-2.96-6.57-5.16-9.4-6.59c-2.83-1.44-5.44-2.15-7.83-2.15
		c-2.61,0-4.79,0.75-6.53,2.25c-1.74,1.5-2.61,3.34-2.61,5.52c0,2.7,3.26,5.72,9.79,9.08c2.31,1.18,4.09,2.13,5.35,2.87
		c6.7,3.7,11.36,7.48,13.97,11.33c2.61,3.85,3.92,8.67,3.92,14.46c0,10.23-3.55,18.4-10.64,24.52c-7.09,6.12-16.74,9.17-28.92,9.17
		c-6.4,0-12.38-1.36-17.95-4.08c-5.57-2.72-10.6-6.76-15.08-12.11L527.23,278.06z"/>
	<path class="st0" d="M591.38,310.96l47.86-95.58h31.99l20.31,95.58h-25.92l-3.85-18.02h-33.43l-9.14,18.02H591.38z M637.93,271.66
		h20.17l-4.37-22.33c-0.44-2.22-0.76-4.2-0.98-5.94c-0.22-1.74-0.35-3.37-0.39-4.9c-0.91,2.61-1.75,4.91-2.51,6.89
		s-1.36,3.45-1.8,4.41L637.93,271.66z"/>
</g>
</svg>
